<svg aria-hidden="true" style="position: absolute; width: 0; height: 0; overflow: hidden;" version="1.1" xmlns="http://www.w3.org/2000/svg" xmlns:xlink="http://www.w3.org/1999/xlink">
<defs>
<symbol id="check-0" viewBox="0 0 34 32">
<path  d="M5.663 1.885l22.588 0.013c2.079 0.001 3.764 1.688 3.763 3.767l-0.012 20.706c-0.001 2.079-1.688 3.764-3.767 3.763l-22.588-0.013c-2.079-0.001-3.764-1.688-3.763-3.767l0.012-20.706c0.001-2.079 1.688-3.764 3.767-3.763z"></path>
<path fill="#fff" style="fill: var(--color2, #fff); stroke: var(--color2, #fff)" stroke="#fff" stroke-linejoin="miter" stroke-linecap="butt" stroke-miterlimit="4" stroke-width="0.3765" d="M8.23 14.531l-0.129-0.123-1.78 1.674 6.193 5.88 12.994-12.309-1.766-1.677-11.225 10.624-4.286-4.069z"></path>
</symbol>
<symbol id="icon-check-1" viewBox="0 0 34 32">
<path fill="#757575" style="fill: var(--color3, #757575)" d="M5.663 1.885l22.588 0.013c2.079 0.001 3.764 1.688 3.763 3.767l-0.012 20.706c-0.001 2.079-1.688 3.764-3.767 3.763l-22.588-0.013c-2.079-0.001-3.764-1.688-3.763-3.767l0.012-20.706c0.001-2.079 1.688-3.764 3.767-3.763z"></path>
<path fill="#000" style="fill: var(--color4, #000); stroke: var(--color4, #000)" stroke="#000" stroke-linejoin="miter" stroke-linecap="butt" stroke-miterlimit="4" stroke-width="0.3765" d="M8.23 14.531l-0.129-0.123-1.78 1.674 6.193 5.88 12.994-12.309-1.766-1.677-11.225 10.624-4.286-4.069z"></path>
</symbol>
<symbol id="icon-check-2" viewBox="0 0 34 32">
<path fill="#000" style="fill: var(--color4, #000)" d="M5.663 1.885l22.588 0.013c2.079 0.001 3.764 1.688 3.763 3.767l-0.012 20.706c-0.001 2.079-1.688 3.764-3.767 3.763l-22.588-0.013c-2.079-0.001-3.764-1.688-3.763-3.767l0.012-20.706c0.001-2.079 1.688-3.764 3.767-3.763z"></path>
<path fill="#fff" style="fill: var(--color2, #fff); stroke: var(--color2, #fff)" stroke="#fff" stroke-linejoin="miter" stroke-linecap="butt" stroke-miterlimit="4" stroke-width="0.3765" d="M8.23 14.531l-0.129-0.123-1.78 1.674 6.193 5.88 12.994-12.309-1.766-1.677-11.225 10.624-4.286-4.069z"></path>
</symbol>
</defs>
</svg>
