<svg aria-hidden="true" style="position: absolute; width: 0; height: 0; overflow: hidden;" version="1.1" xmlns="http://www.w3.org/2000/svg" xmlns:xlink="http://www.w3.org/1999/xlink">
<defs>
<symbol id="check-b" viewBox="0 0 34 32">
<path  d="M4.017 0.002l24 0.014c2.209 0.001 3.999 1.793 3.998 4.002l-0.013 22c-0.001 2.209-1.793 3.999-4.002 3.998l-24-0.014c-2.209-0.001-3.999-1.793-3.998-4.002l0.013-22c0.001-2.209 1.793-3.999 4.002-3.998z"></path>
<path fill="#fff" style="fill: var(--color2, #fff); stroke: var(--color2, #fff)" stroke="#fff" stroke-linejoin="miter" stroke-linecap="butt" stroke-miterlimit="4" stroke-width="0.4" d="M7.922 15.508l-0.138-0.131-2.068 1.957 7.278 6.951 15.307-14.585-2.052-1.96-13.252 12.616-5.075-4.847z"></path>
</symbol>
<symbol id="check-r" viewBox="0 0 30 32">
<path d="M5.655 1.876l22.588 0.013c2.079 0.001 3.764 1.688 3.763 3.767l-0.012 20.706c-0.001 2.079-1.688 3.764-3.767 3.763l-22.588-0.013c-2.079-0.001-3.764-1.688-3.763-3.767l0.012-20.706c0.001-2.079 1.688-3.764 3.767-3.763z"></path>
<path fill="#fff" style="fill: var(--color2, #fff); stroke: var(--color2, #fff)" stroke="#fff" stroke-linejoin="miter" stroke-linecap="butt" stroke-miterlimit="4" stroke-width="0.3765" d="M9.331 16.469l-0.129-0.124-1.946 1.841 6.85 6.542 14.406-13.727-1.931-1.845-12.473 11.874-4.776-4.562z"></path>
</symbol>
<symbol id="check-g" viewBox="0 0 34 32">
<path  d="M4.017 0.002l24 0.014c2.209 0.001 3.999 1.793 3.998 4.002l-0.013 22c-0.001 2.209-1.793 3.999-4.002 3.998l-24-0.014c-2.209-0.001-3.999-1.793-3.998-4.002l0.013-22c0.001-2.209 1.793-3.999 4.002-3.998z"></path>
<path fill="#000" style="fill: var(--color1, #000); stroke: var(--color1, #000)" stroke="#000" stroke-linejoin="miter" stroke-linecap="butt" stroke-miterlimit="4" stroke-width="0.4" d="M7.922 15.508l-0.138-0.131-2.068 1.957 7.278 6.951 15.307-14.585-2.052-1.96-13.252 12.616-5.075-4.847z"></path>
</symbol>
</defs>
</svg>
