<svg aria-hidden="true" style="position: absolute; width: 0; height: 0; overflow: hidden;" version="1.1" xmlns="http://www.w3.org/2000/svg" xmlns:xlink="http://www.w3.org/1999/xlink">
<defs>
<symbol id="check-0" viewBox="0 0 35 32">
<path d="M3.106 0.001l28.903 0.017c1.14 0.001 2.064 0.925 2.063 2.066l-0.015 26.839c-0.001 1.14-0.925 2.064-2.066 2.063l-28.903-0.017c-1.14-0.001-2.064-0.925-2.063-2.066l0.015-26.839c0.001-1.14 0.925-2.064 2.066-2.063z"></path>
<path  d="M9.13 16.083l-0.071-0.068-1.984 1.878 7.363 7.032 15.651-14.913-1.969-1.88-13.68 13.023-5.31-5.071z"></path>
</symbol>
<symbol id="check-1" viewBox="0 0 35 32">
<path  d="M3.106 0.001l28.903 0.017c1.14 0.001 2.064 0.925 2.063 2.066l-0.015 26.839c-0.001 1.14-0.925 2.064-2.066 2.063l-28.903-0.017c-1.14-0.001-2.064-0.925-2.063-2.066l0.015-26.839c0.001-1.14 0.925-2.064 2.066-2.063z"></path>
<path  d="M9.13 16.083l-0.071-0.068-1.984 1.878 7.363 7.032 15.651-14.913-1.969-1.88-13.68 13.023-5.31-5.071z"></path>
</symbol>
<symbol id="check-2" viewBox="0 0 35 32">
<path  d="M3.106 0.001l28.903 0.017c1.14 0.001 2.064 0.925 2.063 2.066l-0.015 26.839c-0.001 1.14-0.925 2.064-2.066 2.063l-28.903-0.017c-1.14-0.001-2.064-0.925-2.063-2.066l0.015-26.839c0.001-1.14 0.925-2.064 2.066-2.063z"></path>
<path  d="M9.13 16.083l-0.071-0.068-1.984 1.878 7.363 7.032 15.651-14.913-1.969-1.88-13.68 13.023-5.31-5.071z"></path>
</symbol>
</defs>
</svg>
