<svg width="18" height="24" fill="none" xmlns="http://www.w3.org/2000/svg"><g filter="url(#a)" fill="#757575"><path d="M12.5 0h-7C4.6729 0 4 .6728 4 1.5v13c0 .8272.6729 1.5 1.5 1.5h7c.8272 0 1.5-.6728 1.5-1.5v-13c0-.8272-.6728-1.5-1.5-1.5Zm-7 1h7c.2759 0 .5.2241.5.5V12H5V1.5c0-.2759.2241-.5.5-.5Zm7 14h-7a.5003.5003 0 0 1-.5-.5V13h8v1.5c0 .2759-.2241.5-.5.5Z"/><path d="M6.3536 13.7389c.1952.1824.1952.478 0 .6603-.1953.1824-.5119.1824-.7072 0-.1952-.1823-.1952-.4779 0-.6603.1953-.1823.5119-.1823.7072 0Z"/></g><defs><filter id="a" x="0" y="0" width="18" height="24" filterUnits="userSpaceOnUse" color-interpolation-filters="sRGB"><feFlood flood-opacity="0" result="BackgroundImageFix"/><feColorMatrix in="SourceAlpha" values="0 0 0 0 0 0 0 0 0 0 0 0 0 0 0 0 0 0 127 0" result="hardAlpha"/><feOffset dy="4"/><feGaussianBlur stdDeviation="2"/><feComposite in2="hardAlpha" operator="out"/><feColorMatrix values="0 0 0 0 0 0 0 0 0 0 0 0 0 0 0 0 0 0 0.25 0"/><feBlend in2="BackgroundImageFix" result="effect1_dropShadow_166320_12"/><feBlend in="SourceGraphic" in2="effect1_dropShadow_166320_12" result="shape"/></filter></defs></svg>